<svg xmlns="http://www.w3.org/2000/svg" viewBox="0 0 100 35">
  <path d="M34.319,14.054c0,7.415-6.011,13.426-13.426,13.426s-13.425-6.011-13.425-13.426S13.479.629,20.893.629s13.426,6.011,13.426,13.425" fill="#69bce3" fill-rule="evenodd"/>
  <polygon points="20.893 2.207 23.553 10.393 32.161 10.393 25.197 15.453 27.857 23.639 20.893 18.579 13.929 23.639 16.59 15.453 9.626 10.393 18.233 10.393 20.893 2.207" fill="#fff"/>
  <path d="M21.58,30.834c0,.029,2.393-1.183,3.463-.951.099.025.141.103.11.194,0,0-.126.196-.08.276.081.14-.099.352-.342.382-.704.089-1.761.264-2.762.7-.129-.199-.259-.399-.388-.6" fill="#af5b51"/>
  <path d="M22.297,31.776l-.052-.255c1.66-.341,2.372-.771,2.649-.996.03-.024.084-.069.159-.036l.078.113-.13.007.071.107c-.522.426-1.503.799-2.774,1.06ZM24.999,30.608l-.129.007.129-.007Z" fill="#af5b51"/>
  <path d="M20.207,30.834c0,.029-2.394-1.183-3.463-.951-.099.025-.142.103-.11.194,0,0,.127.196.081.276-.08.14.099.352.342.382.703.089,1.76.263,2.762.699.129-.199.259-.399.388-.6" fill="#af5b51"/>
  <path d="M19.491,31.776c-1.273-.262-2.254-.634-2.762-1.05.015.01.067.023.115,0l-.056-.117-.131-.005.077-.115c.075-.034.132.013.159.035.275.226.986.655,2.649.996l-.052.255Z" fill="#af5b51"/>
  <path d="M21.533,31.506c.002.03,2.176,1.32,2.355,2.429.017.105-.034.194-.122.224,0,0-.213.01-.264.102-.088.162-.335.129-.457-.073-.353-.583-.957-1.4-1.826-2.02.105-.22.209-.44.314-.661" fill="#af5b51"/>
  <path d="M20.331,31.508c-.001.03-2.177,1.327-2.355,2.436-.017.105.033.194.122.223,0,0,.215.01.264.101.088.162.335.128.457-.074.352-.584.957-1.403,1.826-2.026-.105-.219-.209-.44-.314-.66" fill="#af5b51"/>
  <path d="M21.983,31.408c0,.578-.494,1.073-1.104,1.072-.61,0-1.103-.496-1.104-1.074,0-.579.494-1.02,1.104-1.02.61,0,1.105.443,1.104,1.022" fill="#af5b51"/>
  <path d="M35.052,1.436c-.066.121-.695,1.567,2.204,5.62.054.073.094.123.122.152l.157.386c.008.023.036.031.058.021.026-.009.039-.035.03-.054l-.147-.374c.003-.041.003-.111-.006-.208-.494-4.945-2.291-5.497-2.418-5.545" fill="#235849" fill-rule="evenodd"/>
  <path d="M32.665,29.064c-.117-.075-1.686-.974-6.065,1.487-.079.045-.133.081-.166.105l-.407.118c-.024.006-.035.032-.027.055.007.026.032.041.052.034l.393-.109c.042.007.113.012.212.013,5.079-.037,5.947-1.582,6.007-1.702" fill="#235849" fill-rule="evenodd"/>
  <path d="M37.39,24.026c-.136-.031-1.924-.353-5.183,3.421-.058.069-.097.12-.119.154l-.341.247c-.02.014-.022.042-.006.06.016.022.044.028.061.014l.331-.234c.042-.008.111-.026.203-.059,4.761-1.729,5.038-3.471,5.053-3.604" fill="#235849" fill-rule="evenodd"/>
  <path d="M40.068,17.574c-.139.011-1.942.245-3.849,4.819-.034.083-.054.144-.064.183l-.247.337c-.015.019-.007.046.013.059.022.017.051.013.062-.005l.241-.322c.037-.02.097-.058.175-.117,3.983-3.082,3.695-4.823,3.668-4.954" fill="#235849" fill-rule="evenodd"/>
  <path d="M40.031,10.509c-.126.06-1.719.917-1.802,5.855,0,.089.003.153.008.193l-.105.402c-.007.023.01.046.034.05.027.008.052-.006.056-.026l.106-.386c.027-.032.069-.089.12-.171,2.57-4.284,1.657-5.805,1.583-5.917" fill="#235849" fill-rule="evenodd"/>
  <path d="M39.179,4.29c-.115.078-1.554,1.164-.861,6.056.014.089.027.151.038.19l-.04.413c-.003.024.017.044.042.045.028.004.051-.014.052-.035l.044-.397c.022-.036.054-.098.091-.187,1.866-4.619.726-5.985.634-6.084" fill="#235849" fill-rule="evenodd"/>
  <path d="M33.296,24.889c-.14-.007-1.958-.017-4.487,4.258-.045.078-.074.135-.089.172l-.291.301c-.017.017-.014.045.005.061.019.019.049.02.063.004l.284-.287c.04-.015.104-.045.19-.093,4.377-2.52,4.336-4.283,4.326-4.416" fill="#235849" fill-rule="evenodd"/>
  <path d="M36.449,19.174c.062.122.794,1.75-2.212,5.719-.055.071-.098.12-.126.149l-.167.381c-.009.022-.037.03-.059.02-.026-.01-.038-.036-.028-.055l.156-.369c-.002-.042,0-.111.011-.207.625-4.929,2.296-5.593,2.424-5.638" fill="#235849" fill-rule="evenodd"/>
  <path d="M37.462,13.423c.098.098,1.308,1.425-.298,6.107-.03.085-.055.143-.073.18l-.038.413c-.001.024-.025.04-.05.036-.028-.001-.047-.023-.044-.044l.032-.398c-.015-.039-.035-.106-.055-.2-.962-4.877.418-6.013.526-6.094" fill="#235849" fill-rule="evenodd"/>
  <path d="M36.639,7.204c.124.063,1.696.956,1.66,5.895-.002.089-.007.153-.012.193l.095.404c.006.023-.011.046-.036.05-.027.007-.052-.007-.056-.028l-.096-.388c-.026-.033-.067-.09-.115-.174-2.466-4.342-1.517-5.841-1.44-5.952" fill="#235849" fill-rule="evenodd"/>
  <path d="M6.197,1.699c.066.121.695,1.567-2.204,5.62-.054.073-.094.123-.122.152l-.157.386c-.008.023-.036.031-.058.021-.026-.009-.039-.035-.03-.054l.147-.374c-.003-.041-.003-.111.006-.208.494-4.945,2.291-5.497,2.418-5.545" fill="#235849" fill-rule="evenodd"/>
  <path d="M8.583,29.328c.117-.075,1.686-.974,6.065,1.487.079.046.133.081.166.106l.407.118c.024.006.035.032.027.055-.007.026-.032.041-.052.034l-.393-.109c-.042.007-.113.012-.212.013-5.079-.037-5.947-1.582-6.007-1.702" fill="#235849" fill-rule="evenodd"/>
  <path d="M3.858,24.241c.136-.031,1.924-.353,5.183,3.421.058.069.097.12.119.154l.341.247c.02.014.022.042.006.06-.016.022-.044.028-.061.014l-.331-.234c-.042-.008-.111-.026-.203-.059-4.761-1.729-5.038-3.471-5.053-3.604" fill="#235849" fill-rule="evenodd"/>
  <path d="M1.181,17.838c.139.011,1.942.245,3.849,4.819.034.083.054.144.064.183l.247.337c.015.019.007.046-.013.059-.022.017-.051.013-.062-.005l-.241-.322c-.037-.02-.097-.058-.175-.117-3.983-3.082-3.695-4.823-3.668-4.954" fill="#235849" fill-rule="evenodd"/>
  <path d="M1.218,10.773c.126.06,1.719.917,1.802,5.855,0,.089-.003.153-.008.193l.105.402c.007.023-.01.046-.034.05-.027.008-.052-.006-.056-.026l-.106-.386c-.027-.032-.069-.089-.12-.171C.23,12.406,1.143,10.885,1.218,10.773" fill="#235849" fill-rule="evenodd"/>
  <path d="M2.069,4.554c.115.078,1.554,1.164.861,6.056-.014.089-.027.151-.038.19l.04.413c.003.024-.017.044-.042.045-.028.004-.051-.014-.052-.035l-.044-.397c-.022-.036-.054-.098-.091-.187-1.866-4.619-.726-5.985-.634-6.084" fill="#235849" fill-rule="evenodd"/>
  <path d="M7.952,25.152c.14-.007,1.958-.017,4.487,4.258.045.078.074.135.089.172l.291.301c.017.017.014.045-.005.061-.019.019-.049.02-.063.004l-.284-.287c-.04-.015-.104-.045-.19-.092-4.377-2.52-4.336-4.283-4.326-4.416" fill="#235849" fill-rule="evenodd"/>
  <path d="M4.799,19.438c-.062.122-.794,1.75,2.212,5.719.055.071.098.12.126.149l.167.381c.009.022.037.03.059.02.026-.01.038-.036.028-.055l-.156-.369c.002-.041,0-.111-.011-.207-.625-4.929-2.296-5.593-2.424-5.638" fill="#235849" fill-rule="evenodd"/>
  <path d="M3.786,13.687c-.098.098-1.308,1.425.298,6.107.03.085.055.143.073.18l.038.413c.001.024.025.04.05.036.028-.001.047-.023.044-.044l-.032-.398c.015-.039.035-.106.055-.2.962-4.877-.418-6.013-.526-6.094" fill="#235849" fill-rule="evenodd"/>
  <path d="M4.609,7.468c-.124.063-1.696.956-1.66,5.895.002.089.007.153.012.193l-.095.404c-.006.023.011.045.036.05.027.007.052-.007.056-.028l.096-.388c.026-.033.067-.09.115-.174,2.466-4.342,1.517-5.841,1.44-5.952" fill="#235849" fill-rule="evenodd"/>
  <g>
    <path d="M50.431,3.568h1.098c.031,0,.058.011.08.032s.033.047.033.077v6.095c0,.03-.011.056-.033.077-.022.021-.049.032-.08.032h-1.108c-.032,0-.058-.01-.08-.032-.022-.021-.033-.046-.033-.077v-4.003c0-.024-.006-.038-.019-.041-.013-.003-.025.005-.038.023l-.871,1.371c-.025.048-.07.072-.133.072h-.218c-.063,0-.107-.024-.133-.072l-.871-1.371c-.013-.018-.025-.025-.038-.023-.013.003-.019.017-.019.041v4.003c0,.03-.011.056-.033.077-.022.021-.049.032-.08.032h-1.108c-.032,0-.058-.01-.08-.032-.022-.021-.033-.046-.033-.077V3.677c0-.03.011-.056.033-.077.022-.021.049-.032.08-.032h1.098c.063,0,.107.024.133.072l1.136,1.776c.019.036.038.036.057,0l1.127-1.776c.025-.048.069-.072.133-.072Z" fill="#33416b"/>
    <path d="M53.111,9.7c-.328-.168-.582-.404-.762-.708-.18-.303-.27-.654-.27-1.05V3.677c0-.03.011-.056.033-.077s.049-.032.081-.032h1.108c.032,0,.058.011.081.032.022.021.033.047.033.077v4.328c0,.258.076.466.227.622.152.156.353.234.606.234s.454-.078.606-.234c.151-.156.227-.364.227-.622V3.677c0-.03.011-.056.033-.077s.049-.032.081-.032h1.108c.032,0,.058.011.081.032.022.021.033.047.033.077v4.265c0,.397-.09.747-.27,1.05-.18.304-.434.54-.762.708-.328.168-.707.252-1.136.252s-.808-.084-1.136-.252Z" fill="#33416b"/>
    <path d="M58.322,9.84c-.022-.021-.033-.046-.033-.077v-2.308l-.01-.054-1.638-3.706c-.006-.012-.01-.03-.01-.054,0-.048.032-.072.095-.072h1.193c.069,0,.114.03.132.09l.881,2.281c.006.018.016.027.028.027s.022-.009.029-.027l.88-2.281c.019-.06.063-.09.133-.09h1.193c.044,0,.073.012.085.036.013.024.013.054,0,.09l-1.647,3.706-.01.054v2.308c0,.03-.011.056-.033.077s-.049.031-.081.031h-1.108c-.032,0-.058-.01-.081-.031Z" fill="#33416b"/>
    <path d="M62.99,9.849c-.022-.021-.033-.046-.033-.077V3.677c0-.03.011-.056.033-.077.022-.021.049-.032.08-.032h1.108c.032,0,.058.011.081.032s.033.047.033.077v6.095c0,.03-.011.056-.033.077-.022.021-.049.032-.081.032h-1.108c-.032,0-.058-.01-.08-.032Z" fill="#33416b"/>
    <path d="M64.827,9.849c-.022-.021-.033-.046-.033-.077V3.677c0-.03.011-.056.033-.077.022-.021.049-.032.08-.032h1.108c.032,0,.058.011.081.032s.033.047.033.077v5.068c0,.03.016.045.048.045h2.537c.031,0,.058.011.08.032.022.021.033.047.033.077v.875c0,.03-.011.056-.033.077-.022.021-.049.032-.08.032h-3.806c-.032,0-.058-.01-.08-.032Z" fill="#33416b"/>
    <path d="M70.01,9.7c-.328-.168-.582-.404-.762-.708-.18-.303-.27-.654-.27-1.05V3.677c0-.03.011-.056.033-.077s.049-.032.081-.032h1.108c.032,0,.058.011.081.032.022.021.033.047.033.077v4.328c0,.258.076.466.227.622.152.156.353.234.606.234s.454-.078.606-.234c.151-.156.227-.364.227-.622V3.677c0-.03.011-.056.033-.077s.049-.032.081-.032h1.108c.032,0,.058.011.081.032.022.021.033.047.033.077v4.265c0,.397-.09.747-.27,1.05-.18.304-.434.54-.762.708-.328.168-.707.252-1.136.252s-.808-.084-1.136-.252Z" fill="#33416b"/>
    <path d="M74.621,9.732c-.328-.147-.582-.355-.762-.622-.18-.268-.27-.576-.27-.924v-.234c0-.03.011-.056.033-.077.022-.021.049-.032.08-.032h1.089c.032,0,.058.011.081.032.022.021.033.047.033.077v.171c0,.211.082.386.246.528.164.141.385.212.663.212.246,0,.434-.06.563-.18.129-.12.194-.274.194-.46,0-.138-.041-.257-.123-.356-.082-.099-.197-.192-.346-.279-.148-.087-.377-.206-.686-.356-.379-.18-.688-.348-.928-.505s-.445-.358-.615-.604c-.17-.246-.256-.544-.256-.893s.087-.654.26-.915.418-.463.734-.604.675-.212,1.079-.212c.423,0,.798.077,1.127.23s.584.368.767.645c.183.277.275.595.275.956v.18c0,.03-.011.056-.033.077s-.049.032-.08.032h-1.089c-.032,0-.058-.011-.081-.032s-.033-.046-.033-.077v-.162c0-.216-.079-.397-.237-.541s-.372-.216-.644-.216c-.227,0-.406.056-.535.167-.129.111-.194.266-.194.464,0,.138.038.259.114.361.076.102.192.2.35.293s.398.215.72.365l.199.108c.366.193.652.359.857.501.205.141.377.32.516.536.139.216.208.478.208.785,0,.547-.194.981-.582,1.303-.388.322-.904.482-1.548.482-.435,0-.817-.074-1.146-.221Z" fill="#33416b"/>
    <path d="M82.342,3.6c.022.021.033.047.033.077v.884c0,.03-.011.056-.033.077-.022.021-.049.031-.081.031h-1.439c-.032,0-.048.015-.048.045v5.058c0,.03-.011.056-.033.077-.022.021-.049.032-.081.032h-1.108c-.032,0-.058-.01-.081-.032-.022-.021-.033-.046-.033-.077v-5.058c0-.03-.016-.045-.047-.045h-1.392c-.032,0-.058-.01-.081-.031s-.033-.047-.033-.077v-.884c0-.03.011-.056.033-.077s.049-.032.081-.032h4.26c.032,0,.058.011.081.032Z" fill="#33416b"/>
    <path d="M85.612,9.79l-.956-2.489c-.013-.024-.028-.036-.047-.036h-.596c-.032,0-.048.015-.048.045v2.462c0,.03-.011.056-.033.077-.022.021-.049.032-.081.032h-1.108c-.032,0-.058-.01-.08-.032-.022-.021-.033-.046-.033-.077V3.677c0-.03.011-.056.033-.077.022-.021.049-.032.08-.032h2.31c.372,0,.704.08.994.239s.514.383.672.672c.158.288.237.619.237.992,0,.385-.088.718-.265,1.001-.177.283-.426.493-.748.631-.032.012-.041.033-.028.063l1.079,2.588c.006.012.009.027.009.045,0,.054-.035.081-.104.081h-1.155c-.07,0-.114-.03-.133-.09ZM83.965,4.704v1.542c0,.03.016.045.048.045h.824c.233,0,.423-.074.568-.221.145-.147.218-.344.218-.591,0-.252-.073-.452-.218-.6-.145-.147-.335-.221-.568-.221h-.824c-.032,0-.048.015-.048.045Z" fill="#33416b"/>
    <path d="M91.27,4.628c-.022.021-.049.032-.08.032h-2.537c-.032,0-.048.015-.048.045v1.407c0,.03.016.045.048.045h1.581c.031,0,.058.011.08.031.022.021.033.047.033.077v.875c0,.03-.011.056-.033.077-.022.021-.049.032-.08.032h-1.581c-.032,0-.048.015-.048.045v1.452c0,.03.016.045.048.045h2.537c.031,0,.058.011.08.032.022.021.033.047.033.077v.875c0,.03-.011.056-.033.077-.022.021-.049.032-.08.032h-3.806c-.032,0-.058-.01-.08-.032-.022-.021-.033-.046-.033-.077V3.677c0-.03.011-.056.033-.077.022-.021.049-.032.08-.032h3.806c.031,0,.058.011.08.032s.033.047.033.077v.875c0,.03-.011.056-.033.077Z" fill="#33416b"/>
  </g>
  <g>
    <path d="M50.431,10.71h1.098c.031,0,.058.011.08.032s.033.047.033.077v6.095c0,.03-.011.056-.033.077-.022.021-.049.032-.08.032h-1.108c-.032,0-.058-.01-.08-.032-.022-.021-.033-.046-.033-.077v-4.003c0-.024-.006-.038-.019-.041-.013-.003-.025.005-.038.023l-.871,1.371c-.025.048-.07.072-.133.072h-.218c-.063,0-.107-.024-.133-.072l-.871-1.371c-.013-.018-.025-.025-.038-.023-.013.003-.019.017-.019.041v4.003c0,.03-.011.056-.033.077-.022.021-.049.032-.08.032h-1.108c-.032,0-.058-.01-.08-.032-.022-.021-.033-.046-.033-.077v-6.095c0-.03.011-.056.033-.077.022-.021.049-.032.08-.032h1.098c.063,0,.107.024.133.072l1.136,1.776c.019.036.038.036.057,0l1.127-1.776c.025-.048.069-.072.133-.072Z" fill="#33416b"/>
    <path d="M53.111,16.841c-.328-.168-.582-.404-.762-.708-.18-.303-.27-.654-.27-1.05v-4.265c0-.03.011-.056.033-.077s.049-.032.081-.032h1.108c.032,0,.058.011.081.032.022.021.033.047.033.077v4.328c0,.258.076.466.227.622.152.156.353.234.606.234s.454-.078.606-.234c.151-.156.227-.364.227-.622v-4.328c0-.03.011-.056.033-.077s.049-.032.081-.032h1.108c.032,0,.058.011.081.032.022.021.033.047.033.077v4.265c0,.397-.09.747-.27,1.05-.18.304-.434.54-.762.708-.328.168-.707.252-1.136.252s-.808-.084-1.136-.252Z" fill="#33416b"/>
    <path d="M60.14,10.741c.022-.021.049-.032.08-.032h1.098c.031,0,.058.011.08.032s.033.047.033.077v6.095c0,.03-.011.056-.033.077-.022.021-.049.032-.08.032h-1.155c-.063,0-.107-.027-.132-.081l-1.808-3.67c-.013-.018-.025-.027-.038-.027s-.019.012-.019.036l.01,3.634c0,.03-.011.056-.033.077-.022.021-.049.032-.08.032h-1.098c-.032,0-.058-.01-.08-.032-.022-.021-.033-.046-.033-.077v-6.095c0-.03.011-.056.033-.077.022-.021.049-.032.08-.032h1.146c.063,0,.107.027.132.081l1.808,3.67c.013.018.025.027.038.027.013,0,.019-.012.019-.036v-3.634c0-.03.011-.056.033-.077Z" fill="#33416b"/>
    <path d="M61.968,16.99c-.022-.021-.033-.046-.033-.077v-6.095c0-.03.011-.056.033-.077.022-.021.049-.032.08-.032h1.108c.032,0,.058.011.081.032s.033.047.033.077v6.095c0,.03-.011.056-.033.077-.022.021-.049.032-.081.032h-1.108c-.032,0-.058-.01-.08-.032Z" fill="#33416b"/>
    <path d="M64.689,16.851c-.328-.162-.582-.394-.762-.694-.18-.301-.27-.649-.27-1.046v-2.507c0-.391.09-.735.27-1.032.18-.298.434-.528.762-.69.328-.162.707-.243,1.136-.243s.808.08,1.136.239.582.383.762.672c.18.289.27.625.27,1.01v.045c0,.03-.011.057-.033.081-.022.024-.049.036-.081.036l-1.108.045c-.076,0-.114-.033-.114-.099v-.117c0-.246-.076-.445-.227-.595s-.354-.226-.606-.226-.454.075-.606.226c-.151.15-.227.349-.227.595v2.642c0,.247.076.443.227.591.152.147.353.221.606.221s.454-.074.606-.221c.151-.147.227-.344.227-.591v-.117c0-.066.038-.099.114-.099l1.108.045c.032,0,.058.011.081.031.022.021.033.047.033.077v.027c0,.385-.09.724-.27,1.019s-.434.522-.762.681c-.328.159-.707.239-1.136.239s-.808-.081-1.136-.243Z" fill="#33416b"/>
    <path d="M68.386,16.99c-.022-.021-.033-.046-.033-.077v-6.095c0-.03.011-.056.033-.077.022-.021.049-.032.08-.032h1.108c.032,0,.058.011.081.032s.033.047.033.077v6.095c0,.03-.011.056-.033.077-.022.021-.049.032-.081.032h-1.108c-.032,0-.058-.01-.08-.032Z" fill="#33416b"/>
    <path d="M73.575,10.944c.294.162.521.391.682.685.161.295.241.631.241,1.01,0,.373-.081.702-.241.987s-.388.507-.682.663c-.294.156-.63.234-1.008.234h-1.023c-.032,0-.047.015-.047.045v2.344c0,.03-.011.056-.033.077-.022.021-.049.032-.08.032h-1.108c-.032,0-.058-.01-.081-.032-.022-.021-.033-.046-.033-.077v-6.105c0-.03.011-.056.033-.077.022-.021.049-.032.081-.032h2.291c.379,0,.715.081,1.008.244ZM72.94,13.284c.148-.153.222-.359.222-.618,0-.264-.074-.475-.222-.631s-.346-.234-.592-.234h-.805c-.032,0-.047.015-.047.045v1.623c0,.03.016.045.047.045h.805c.246,0,.443-.077.592-.23Z" fill="#33416b"/>
    <path d="M77.669,16.932l-.218-.884c-.006-.024-.022-.036-.047-.036h-1.771c-.025,0-.041.012-.047.036l-.218.884c-.019.06-.06.09-.123.09h-1.145c-.082,0-.114-.039-.095-.117l1.704-6.105c.019-.06.063-.09.133-.09h1.373c.069,0,.114.03.133.09l1.704,6.105.01.036c0,.054-.035.081-.104.081h-1.155c-.07,0-.114-.03-.133-.09ZM75.852,15.016c.012.009.025.013.038.013h1.25c.013,0,.025-.004.038-.013.013-.009.016-.023.01-.041l-.653-2.615c-.006-.024-.016-.036-.028-.036-.013,0-.022.012-.029.036l-.634,2.615c-.006.018-.003.032.01.041Z" fill="#33416b"/>
    <path d="M79.293,16.99c-.022-.021-.033-.046-.033-.077v-6.095c0-.03.011-.056.033-.077.022-.021.049-.032.08-.032h1.108c.032,0,.058.011.081.032s.033.047.033.077v5.068c0,.03.016.045.048.045h2.537c.031,0,.058.011.08.032.022.021.033.047.033.077v.875c0,.03-.011.056-.033.077-.022.021-.049.032-.08.032h-3.806c-.032,0-.058-.01-.08-.032Z" fill="#33416b"/>
    <path d="M83.525,16.99c-.022-.021-.033-.046-.033-.077v-6.095c0-.03.011-.056.033-.077.022-.021.049-.032.08-.032h1.108c.032,0,.058.011.081.032s.033.047.033.077v6.095c0,.03-.011.056-.033.077-.022.021-.049.032-.081.032h-1.108c-.032,0-.058-.01-.08-.032Z" fill="#33416b"/>
    <path d="M85.362,16.99c-.022-.021-.033-.046-.033-.077v-6.095c0-.03.011-.056.033-.077.022-.021.049-.032.08-.032h2.036c.423,0,.797.075,1.122.225.325.15.576.364.753.64.177.277.265.598.265.965v2.651c0,.367-.088.688-.265.965-.177.276-.428.49-.753.64-.325.15-.699.225-1.122.225h-2.036c-.032,0-.058-.01-.08-.032ZM86.711,15.931l.776-.009c.233,0,.423-.08.568-.239.145-.159.221-.371.227-.636v-2.363c0-.27-.073-.485-.218-.645-.145-.159-.338-.239-.578-.239h-.776c-.032,0-.048.015-.048.045v4.04c0,.03.016.045.048.045Z" fill="#33416b"/>
    <path d="M93.111,16.932l-.218-.884c-.006-.024-.022-.036-.047-.036h-1.771c-.025,0-.041.012-.047.036l-.218.884c-.019.06-.06.09-.123.09h-1.145c-.082,0-.114-.039-.095-.117l1.704-6.105c.019-.06.063-.09.133-.09h1.373c.069,0,.114.03.133.09l1.704,6.105.01.036c0,.054-.035.081-.104.081h-1.155c-.07,0-.114-.03-.133-.09ZM91.293,15.016c.012.009.025.013.038.013h1.25c.013,0,.025-.004.038-.013.013-.009.016-.023.01-.041l-.653-2.615c-.006-.024-.016-.036-.028-.036-.013,0-.022.012-.029.036l-.634,2.615c-.006.018-.003.032.01.041Z" fill="#33416b"/>
    <path d="M94.744,16.99c-.022-.021-.033-.046-.033-.077v-6.095c0-.03.011-.056.033-.077.022-.021.049-.032.08-.032h2.036c.423,0,.797.075,1.122.225.325.15.576.364.753.64.177.277.265.598.265.965v2.651c0,.367-.088.688-.265.965-.177.276-.428.49-.753.64-.325.15-.699.225-1.122.225h-2.036c-.032,0-.058-.01-.08-.032ZM96.093,15.931l.776-.009c.233,0,.423-.08.568-.239.145-.159.221-.371.227-.636v-2.363c0-.27-.073-.485-.218-.645-.145-.159-.338-.239-.578-.239h-.776c-.032,0-.048.015-.048.045v4.04c0,.03.016.045.048.045Z" fill="#33416b"/>
  </g>
  <g>
    <path d="M46.687,24.132c-.022-.021-.033-.046-.033-.077v-6.095c0-.03.011-.056.033-.077.022-.021.049-.032.08-.032h2.036c.423,0,.797.075,1.122.225.325.15.576.364.753.64.177.277.265.598.265.965v2.651c0,.367-.088.688-.265.965-.177.276-.428.49-.753.64-.325.15-.699.225-1.122.225h-2.036c-.032,0-.058-.01-.08-.032ZM48.036,23.072l.776-.009c.233,0,.423-.08.568-.239.145-.159.221-.371.227-.636v-2.363c0-.27-.073-.485-.218-.645-.145-.159-.338-.239-.578-.239h-.776c-.032,0-.048.015-.048.045v4.04c0,.03.016.045.048.045Z" fill="#33416b"/>
    <path d="M55.321,18.911c-.022.021-.049.032-.08.032h-2.537c-.032,0-.048.015-.048.045v1.407c0,.03.016.045.048.045h1.581c.031,0,.058.011.08.031.022.021.033.047.033.077v.875c0,.03-.011.056-.033.077-.022.021-.049.032-.08.032h-1.581c-.032,0-.048.015-.048.045v1.452c0,.03.016.045.048.045h2.537c.031,0,.058.011.08.032.022.021.033.047.033.077v.875c0,.03-.011.056-.033.077-.022.021-.049.032-.08.032h-3.806c-.032,0-.058-.01-.08-.032-.022-.021-.033-.046-.033-.077v-6.095c0-.03.011-.056.033-.077.022-.021.049-.032.08-.032h3.806c.031,0,.058.011.08.032s.033.047.033.077v.875c0,.03-.011.056-.033.077Z" fill="#33416b"/>
    <path d="M57.986,23.992c-.328-.162-.582-.392-.762-.69-.18-.297-.27-.642-.27-1.032v-2.534c0-.391.09-.733.27-1.028.18-.295.434-.523.762-.685.328-.162.707-.243,1.136-.243.423,0,.8.08,1.131.239.331.159.587.382.767.667s.27.609.27.969v.198c0,.03-.011.056-.033.077-.022.021-.049.032-.081.032h-1.108c-.032,0-.058-.01-.081-.032-.022-.021-.033-.046-.033-.077v-.189c0-.228-.076-.418-.227-.568s-.354-.226-.606-.226-.456.078-.611.234c-.155.156-.232.361-.232.613v2.579c0,.253.08.457.241.613s.371.234.63.234c.246,0,.443-.069.592-.207.148-.138.222-.328.222-.568v-.559c0-.03-.016-.045-.047-.045h-.739c-.032,0-.058-.01-.081-.032-.022-.021-.033-.046-.033-.077v-.821c0-.03.011-.056.033-.077.022-.021.049-.032.081-.032h1.998c.032,0,.058.011.081.032.022.021.033.047.033.077v1.434c0,.601-.197,1.079-.592,1.434-.395.355-.92.532-1.576.532-.429,0-.808-.081-1.136-.243Z" fill="#33416b"/>
    <path d="M62.673,23.983c-.328-.168-.582-.404-.762-.708-.18-.303-.27-.654-.27-1.05v-4.265c0-.03.011-.056.033-.077s.049-.032.081-.032h1.108c.032,0,.058.011.081.032.022.021.033.047.033.077v4.328c0,.258.076.466.227.622.152.156.353.234.606.234s.454-.078.606-.234c.151-.156.227-.364.227-.622v-4.328c0-.03.011-.056.033-.077s.049-.032.081-.032h1.108c.032,0,.058.011.081.032.022.021.033.047.033.077v4.265c0,.397-.09.747-.27,1.05-.18.304-.434.54-.762.708-.328.168-.707.252-1.136.252s-.808-.084-1.136-.252Z" fill="#33416b"/>
    <path d="M69.641,24.073l-.218-.884c-.006-.024-.022-.036-.047-.036h-1.771c-.025,0-.041.012-.047.036l-.218.884c-.019.06-.06.09-.123.09h-1.145c-.082,0-.114-.039-.095-.117l1.704-6.105c.019-.06.063-.09.133-.09h1.373c.069,0,.114.03.133.09l1.704,6.105.01.036c0,.054-.035.081-.104.081h-1.155c-.07,0-.114-.03-.133-.09ZM67.823,22.157c.012.009.025.013.038.013h1.25c.013,0,.025-.004.038-.013.013-.009.016-.023.01-.041l-.653-2.615c-.006-.024-.016-.036-.028-.036-.013,0-.022.012-.029.036l-.634,2.615c-.006.018-.003.032.01.041Z" fill="#33416b"/>
    <path d="M72.003,24.123c-.022-.021-.033-.046-.033-.077v-2.308l-.01-.054-1.638-3.706c-.006-.012-.01-.03-.01-.054,0-.048.032-.072.095-.072h1.193c.069,0,.114.03.132.09l.881,2.281c.006.018.016.027.028.027s.022-.009.029-.027l.88-2.281c.019-.06.063-.09.133-.09h1.193c.044,0,.073.012.085.036.013.024.013.054,0,.09l-1.647,3.706-.01.054v2.308c0,.03-.011.056-.033.077s-.049.031-.081.031h-1.108c-.032,0-.058-.01-.081-.031Z" fill="#33416b"/>
    <path d="M77.887,24.073l-.218-.884c-.006-.024-.022-.036-.047-.036h-1.771c-.025,0-.041.012-.047.036l-.218.884c-.019.06-.06.09-.123.09h-1.145c-.082,0-.114-.039-.095-.117l1.704-6.105c.019-.06.063-.09.133-.09h1.373c.069,0,.114.03.133.09l1.704,6.105.01.036c0,.054-.035.081-.104.081h-1.155c-.07,0-.114-.03-.133-.09ZM76.069,22.157c.012.009.025.013.038.013h1.25c.013,0,.025-.004.038-.013.013-.009.016-.023.01-.041l-.653-2.615c-.006-.024-.016-.036-.028-.036-.013,0-.022.012-.029.036l-.634,2.615c-.006.018-.003.032.01.041Z" fill="#33416b"/>
    <path d="M82.408,18.036c.325.171.578.412.757.721.18.31.27.669.27,1.077v2.389c0,.481-.128.891-.384,1.231-.256.34-.608.57-1.056.69-.025.006-.038.021-.038.045v.748c0,.03-.011.056-.033.077s-.049.032-.08.032h-1.108c-.032,0-.058-.011-.081-.032s-.033-.047-.033-.077v-.748c0-.024-.013-.039-.038-.045-.442-.12-.791-.35-1.046-.69-.256-.339-.383-.75-.383-1.231v-2.389c0-.409.088-.768.265-1.077.177-.31.426-.55.748-.721.322-.171.694-.257,1.117-.257s.797.086,1.122.257ZM82.1,19.736c0-.258-.074-.467-.222-.627-.148-.159-.346-.239-.592-.239-.234,0-.425.08-.573.239-.148.159-.222.368-.222.627v2.543c0,.259.074.467.222.627s.339.239.573.239c.246,0,.443-.08.592-.239s.222-.368.222-.627v-2.543Z" fill="#33416b"/>
    <path d="M84.77,23.983c-.328-.168-.582-.404-.762-.708-.18-.303-.27-.654-.27-1.05v-4.265c0-.03.011-.056.033-.077s.049-.032.081-.032h1.108c.032,0,.058.011.081.032.022.021.033.047.033.077v4.328c0,.258.076.466.227.622.152.156.353.234.606.234s.454-.078.606-.234c.151-.156.227-.364.227-.622v-4.328c0-.03.011-.056.033-.077s.049-.032.081-.032h1.108c.032,0,.058.011.081.032.022.021.033.047.033.077v4.265c0,.397-.09.747-.27,1.05-.18.304-.434.54-.762.708-.328.168-.707.252-1.136.252s-.808-.084-1.136-.252Z" fill="#33416b"/>
    <path d="M88.571,24.132c-.022-.021-.033-.046-.033-.077v-6.095c0-.03.011-.056.033-.077.022-.021.049-.032.08-.032h1.108c.032,0,.058.011.081.032s.033.047.033.077v6.095c0,.03-.011.056-.033.077-.022.021-.049.032-.081.032h-1.108c-.032,0-.058-.01-.08-.032Z" fill="#33416b"/>
    <path d="M90.408,24.132c-.022-.021-.033-.046-.033-.077v-6.095c0-.03.011-.056.033-.077.022-.021.049-.032.08-.032h1.108c.032,0,.058.011.081.032s.033.047.033.077v5.068c0,.03.016.045.048.045h2.537c.031,0,.058.011.08.032.022.021.033.047.033.077v.875c0,.03-.011.056-.033.077-.022.021-.049.032-.08.032h-3.806c-.032,0-.058-.01-.08-.032Z" fill="#33416b"/>
  </g>
  <g>
    <path d="M47.709,25.594c.127.07.225.169.295.296.07.127.104.273.104.436,0,.161-.035.303-.104.427s-.168.219-.295.286c-.127.068-.272.101-.436.101h-.442c-.014,0-.02.006-.02.019v1.013c0,.013-.005.024-.014.033-.01.009-.021.014-.035.014h-.479c-.014,0-.025-.005-.035-.014-.01-.009-.014-.02-.014-.033v-2.638c0-.013.005-.024.014-.033.009-.009.021-.014.035-.014h.99c.164,0,.309.035.436.105ZM47.435,26.605c.064-.066.096-.155.096-.267,0-.114-.032-.205-.096-.273-.064-.068-.149-.101-.256-.101h-.348c-.014,0-.02.007-.02.019v.702c0,.013.007.019.02.019h.348c.106,0,.192-.033.256-.1Z" fill="#69bce3"/>
    <path d="M48.658,28.147c-.143-.073-.254-.175-.333-.308-.079-.133-.119-.287-.119-.464v-1.037c0-.174.039-.327.119-.46.079-.133.19-.235.333-.308.143-.073.309-.109.497-.109s.355.036.499.109c.145.073.256.175.335.308.079.132.119.286.119.46v1.037c0,.177-.04.331-.119.464-.079.133-.191.235-.335.308-.144.073-.311.109-.499.109s-.354-.036-.497-.109ZM49.43,27.677c.068-.071.102-.164.102-.279v-1.076c0-.117-.034-.211-.102-.282-.068-.071-.16-.107-.274-.107-.112,0-.202.036-.27.107-.068.071-.102.166-.102.282v1.076c0,.114.034.207.102.279.068.071.158.107.27.107.114,0,.206-.036.274-.107Z" fill="#69bce3"/>
    <path d="M51.619,28.182l-.413-1.075c-.006-.01-.012-.016-.021-.016h-.258c-.014,0-.021.006-.021.019v1.064c0,.013-.005.024-.014.033-.01.009-.021.014-.035.014h-.479c-.014,0-.025-.005-.035-.014-.01-.009-.014-.02-.014-.033v-2.634c0-.013.005-.024.014-.033.009-.009.021-.014.035-.014h.998c.161,0,.304.034.429.103.126.069.222.166.291.29.068.125.102.268.102.429,0,.166-.038.31-.114.432-.076.122-.184.213-.323.273-.014.005-.018.014-.012.027l.466,1.118c.003.005.004.012.004.019,0,.023-.015.035-.045.035h-.499c-.03,0-.049-.013-.057-.039ZM50.907,25.984v.666c0,.013.007.019.021.019h.356c.101,0,.183-.032.245-.096.063-.064.094-.149.094-.255,0-.109-.031-.195-.094-.259s-.144-.096-.245-.096h-.356c-.014,0-.021.007-.021.019Z" fill="#69bce3"/>
    <path d="M53.431,28.147c-.142-.07-.252-.169-.329-.298-.078-.128-.117-.277-.117-.446v-1.095c0-.169.039-.317.117-.444.078-.127.188-.226.329-.296s.306-.105.491-.105c.183,0,.346.034.489.103.143.069.254.165.331.288.078.124.117.263.117.419v.086c0,.013-.005.024-.014.033-.009.009-.021.014-.035.014h-.479c-.014,0-.025-.005-.035-.014-.009-.009-.014-.02-.014-.033v-.082c0-.099-.033-.181-.098-.246-.065-.065-.153-.097-.262-.097s-.197.034-.264.101c-.067.068-.1.156-.1.265v1.114c0,.109.035.197.104.265.07.068.16.101.272.101.106,0,.191-.03.256-.09.064-.06.096-.142.096-.245v-.242c0-.013-.007-.019-.021-.019h-.319c-.014,0-.025-.005-.035-.014-.01-.009-.014-.02-.014-.033v-.355c0-.013.005-.024.014-.033.009-.009.021-.014.035-.014h.863c.014,0,.025.005.035.014.01.009.014.02.014.033v.62c0,.26-.085.466-.256.619-.171.153-.398.23-.681.23-.185,0-.349-.035-.491-.105Z" fill="#69bce3"/>
    <path d="M55.506,28.143c-.142-.073-.252-.175-.33-.306-.078-.131-.117-.282-.117-.454v-1.843c0-.013.005-.024.014-.033.009-.009.021-.014.035-.014h.479c.014,0,.025.005.035.014.009.009.014.02.014.033v1.871c0,.112.033.201.098.269.065.068.153.101.262.101s.197-.034.262-.101c.065-.068.098-.157.098-.269v-1.871c0-.013.005-.024.014-.033.009-.009.021-.014.035-.014h.479c.014,0,.025.005.035.014.009.009.014.02.014.033v1.843c0,.172-.039.323-.117.454-.078.131-.188.233-.329.306-.142.073-.306.109-.491.109s-.349-.036-.491-.109Z" fill="#69bce3"/>
    <path d="M58.57,28.182l-.094-.382c-.003-.01-.01-.016-.021-.016h-.765c-.011,0-.018.005-.02.016l-.094.382c-.008.026-.026.039-.053.039h-.495c-.035,0-.049-.017-.041-.051l.736-2.638c.008-.026.027-.039.057-.039h.593c.03,0,.049.013.057.039l.736,2.638.004.016c0,.023-.015.035-.045.035h-.499c-.03,0-.049-.013-.057-.039ZM57.784,27.354c.005.004.011.006.016.006h.54c.005,0,.011-.002.016-.006.005-.004.007-.01.004-.018l-.282-1.13c-.003-.01-.007-.016-.012-.016-.006,0-.01.005-.012.016l-.274,1.13c-.003.008-.001.014.004.018Z" fill="#69bce3"/>
    <path d="M59.636,28.203c-.01-.009-.014-.02-.014-.033v-.998l-.004-.023-.708-1.602c-.003-.005-.004-.013-.004-.023,0-.021.014-.031.041-.031h.515c.03,0,.049.013.057.039l.381.986c.003.008.007.012.012.012.005,0,.009-.004.012-.012l.381-.986c.008-.026.027-.039.057-.039h.516c.019,0,.031.005.037.016.005.01.005.023,0,.039l-.712,1.602-.004.023v.998c0,.013-.005.024-.014.033-.01.009-.021.014-.035.014h-.479c-.014,0-.025-.005-.035-.014Z" fill="#69bce3"/>
    <path d="M62.228,28.182l-.094-.382c-.003-.01-.01-.016-.021-.016h-.765c-.011,0-.018.005-.02.016l-.094.382c-.008.026-.026.039-.053.039h-.495c-.035,0-.049-.017-.041-.051l.736-2.638c.008-.026.027-.039.057-.039h.593c.03,0,.049.013.057.039l.736,2.638.004.016c0,.023-.015.035-.045.035h-.499c-.03,0-.049-.013-.057-.039ZM61.442,27.354c.005.004.011.006.016.006h.54c.005,0,.011-.002.016-.006.005-.004.007-.01.004-.018l-.282-1.13c-.003-.01-.007-.016-.012-.016-.006,0-.01.005-.012.016l-.274,1.13c-.003.008-.001.014.004.018Z" fill="#69bce3"/>
    <path d="M64.231,25.573c.141.074.25.178.327.312.078.134.117.289.117.466v1.033c0,.208-.055.385-.166.532-.11.147-.263.246-.456.298-.011.003-.016.009-.016.019v.323c0,.013-.005.024-.014.033-.01.009-.021.014-.035.014h-.479c-.014,0-.025-.005-.035-.014-.009-.009-.014-.02-.014-.033v-.323c0-.01-.005-.017-.016-.019-.191-.052-.342-.151-.452-.298-.11-.147-.166-.324-.166-.532v-1.033c0-.176.038-.332.114-.466s.184-.238.323-.312.3-.111.483-.111.344.037.485.111ZM64.098,26.308c0-.112-.032-.202-.096-.271-.064-.069-.149-.103-.256-.103-.101,0-.183.034-.247.103-.064.069-.096.159-.096.271v1.099c0,.112.032.202.096.271.064.069.147.103.247.103.106,0,.192-.034.256-.103.064-.069.096-.159.096-.271v-1.099Z" fill="#69bce3"/>
    <path d="M65.305,28.143c-.142-.073-.252-.175-.33-.306-.078-.131-.117-.282-.117-.454v-1.843c0-.013.005-.024.014-.033.009-.009.021-.014.035-.014h.479c.014,0,.025.005.035.014.009.009.014.02.014.033v1.871c0,.112.033.201.098.269.065.068.153.101.262.101s.197-.034.262-.101c.065-.068.098-.157.098-.269v-1.871c0-.013.005-.024.014-.033.009-.009.021-.014.035-.014h.479c.014,0,.025.005.035.014.009.009.014.02.014.033v1.843c0,.172-.039.323-.117.454-.078.131-.188.233-.329.306-.142.073-.306.109-.491.109s-.349-.036-.491-.109Z" fill="#69bce3"/>
    <path d="M66.996,28.207c-.01-.009-.014-.02-.014-.033v-2.634c0-.013.005-.024.014-.033.009-.009.021-.014.035-.014h.479c.014,0,.025.005.035.014.009.009.014.02.014.033v2.634c0,.013-.005.024-.014.033-.01.009-.021.014-.035.014h-.479c-.014,0-.025-.005-.035-.014Z" fill="#69bce3"/>
    <path d="M67.839,28.207c-.01-.009-.014-.02-.014-.033v-2.634c0-.013.005-.024.014-.033.009-.009.021-.014.035-.014h.479c.014,0,.025.005.035.014.009.009.014.02.014.033v2.19c0,.013.007.019.021.019h1.097c.014,0,.025.005.035.014.009.009.014.02.014.033v.378c0,.013-.005.024-.014.033-.01.009-.021.014-.035.014h-1.645c-.014,0-.025-.005-.035-.014Z" fill="#69bce3"/>
    <path d="M70.364,28.207c-.01-.009-.014-.02-.014-.033v-2.634c0-.013.005-.024.014-.033.009-.009.021-.014.035-.014h.479c.014,0,.025.005.035.014.009.009.014.02.014.033v2.634c0,.013-.005.024-.014.033-.01.009-.021.014-.035.014h-.479c-.014,0-.025-.005-.035-.014Z" fill="#69bce3"/>
    <path d="M72.614,25.507c.009-.009.021-.014.035-.014h.475c.014,0,.025.005.035.014.009.009.014.02.014.033v2.634c0,.013-.005.024-.014.033-.01.009-.021.014-.035.014h-.499c-.027,0-.046-.012-.057-.035l-.782-1.586c-.006-.008-.011-.012-.016-.012-.005,0-.008.005-.008.016l.004,1.57c0,.013-.005.024-.014.033-.01.009-.021.014-.035.014h-.475c-.014,0-.025-.005-.035-.014-.01-.009-.014-.02-.014-.033v-2.634c0-.013.005-.024.014-.033.009-.009.021-.014.035-.014h.495c.027,0,.046.012.057.035l.782,1.586c.005.008.011.012.016.012.006,0,.008-.005.008-.016v-1.571c0-.013.005-.024.014-.033Z" fill="#69bce3"/>
    <path d="M73.44,28.207c-.01-.009-.014-.02-.014-.033v-2.634c0-.013.005-.024.014-.033.009-.009.021-.014.035-.014h.88c.183,0,.344.033.485.097.141.065.249.157.325.277.076.119.115.258.115.417v1.146c0,.158-.038.298-.115.417s-.185.212-.325.277c-.141.065-.302.097-.485.097h-.88c-.014,0-.025-.005-.035-.014ZM74.023,27.749l.335-.004c.101,0,.183-.034.246-.103.063-.069.095-.16.098-.275v-1.021c0-.117-.031-.21-.094-.278-.063-.069-.146-.103-.25-.103h-.335c-.014,0-.021.007-.021.019v1.746c0,.013.007.019.021.019Z" fill="#69bce3"/>
    <path d="M77.225,25.951c-.01.009-.021.014-.035.014h-1.097c-.014,0-.021.007-.021.019v.608c0,.013.007.019.021.019h.683c.014,0,.025.005.035.014.009.009.014.02.014.033v.378c0,.013-.005.024-.014.033-.01.009-.021.014-.035.014h-.683c-.014,0-.021.006-.021.019v.627c0,.013.007.019.021.019h1.097c.014,0,.025.005.035.014.009.009.014.02.014.033v.378c0,.013-.005.024-.014.033-.01.009-.021.014-.035.014h-1.645c-.014,0-.025-.005-.035-.014-.01-.009-.014-.02-.014-.033v-2.634c0-.013.005-.024.014-.033.009-.009.021-.014.035-.014h1.645c.014,0,.025.005.035.014.009.009.014.02.014.033v.378c0,.013-.005.024-.014.033Z" fill="#69bce3"/>
    <path d="M78.886,25.594c.127.07.225.169.295.296.07.127.104.273.104.436,0,.161-.035.303-.104.427s-.168.219-.295.286c-.127.068-.272.101-.436.101h-.442c-.014,0-.02.006-.02.019v1.013c0,.013-.005.024-.014.033-.01.009-.021.014-.035.014h-.479c-.014,0-.025-.005-.035-.014-.01-.009-.014-.02-.014-.033v-2.638c0-.013.005-.024.014-.033.009-.009.021-.014.035-.014h.99c.164,0,.309.035.436.105ZM78.612,26.605c.064-.066.096-.155.096-.267,0-.114-.032-.205-.096-.273-.064-.068-.149-.101-.256-.101h-.348c-.014,0-.02.007-.02.019v.702c0,.013.007.019.02.019h.348c.106,0,.192-.033.256-.1Z" fill="#69bce3"/>
    <path d="M81.161,25.951c-.01.009-.021.014-.035.014h-1.097c-.014,0-.021.007-.021.019v.608c0,.013.007.019.021.019h.683c.014,0,.025.005.035.014.009.009.014.02.014.033v.378c0,.013-.005.024-.014.033-.01.009-.021.014-.035.014h-.683c-.014,0-.021.006-.021.019v.627c0,.013.007.019.021.019h1.097c.014,0,.025.005.035.014.009.009.014.02.014.033v.378c0,.013-.005.024-.014.033-.01.009-.021.014-.035.014h-1.645c-.014,0-.025-.005-.035-.014-.01-.009-.014-.02-.014-.033v-2.634c0-.013.005-.024.014-.033.009-.009.021-.014.035-.014h1.645c.014,0,.025.005.035.014.009.009.014.02.014.033v.378c0,.013-.005.024-.014.033Z" fill="#69bce3"/>
    <path d="M82.781,25.507c.009-.009.021-.014.035-.014h.475c.014,0,.025.005.035.014.009.009.014.02.014.033v2.634c0,.013-.005.024-.014.033-.01.009-.021.014-.035.014h-.499c-.027,0-.046-.012-.057-.035l-.782-1.586c-.006-.008-.011-.012-.016-.012-.005,0-.008.005-.008.016l.004,1.57c0,.013-.005.024-.014.033-.01.009-.021.014-.035.014h-.475c-.014,0-.025-.005-.035-.014-.01-.009-.014-.02-.014-.033v-2.634c0-.013.005-.024.014-.033.009-.009.021-.014.035-.014h.495c.027,0,.046.012.057.035l.782,1.586c.005.008.011.012.016.012.006,0,.008-.005.008-.016v-1.571c0-.013.005-.024.014-.033Z" fill="#69bce3"/>
    <path d="M83.612,28.207c-.01-.009-.014-.02-.014-.033v-2.634c0-.013.005-.024.014-.033.009-.009.021-.014.035-.014h.88c.183,0,.344.033.485.097.141.065.249.157.325.277.076.119.115.258.115.417v1.146c0,.158-.038.298-.115.417s-.185.212-.325.277c-.141.065-.302.097-.485.097h-.88c-.014,0-.025-.005-.035-.014ZM84.195,27.749l.335-.004c.101,0,.183-.034.246-.103.063-.069.095-.16.098-.275v-1.021c0-.117-.031-.21-.094-.278-.063-.069-.146-.103-.25-.103h-.335c-.014,0-.021.007-.021.019v1.746c0,.013.007.019.021.019Z" fill="#69bce3"/>
    <path d="M85.682,28.207c-.01-.009-.014-.02-.014-.033v-2.634c0-.013.005-.024.014-.033.009-.009.021-.014.035-.014h.479c.014,0,.025.005.035.014.009.009.014.02.014.033v2.634c0,.013-.005.024-.014.033-.01.009-.021.014-.035.014h-.479c-.014,0-.025-.005-.035-.014Z" fill="#69bce3"/>
    <path d="M88.239,25.951c-.01.009-.021.014-.035.014h-1.097c-.014,0-.021.007-.021.019v.608c0,.013.007.019.021.019h.683c.014,0,.025.005.035.014.009.009.014.02.014.033v.378c0,.013-.005.024-.014.033-.01.009-.021.014-.035.014h-.683c-.014,0-.021.006-.021.019v.627c0,.013.007.019.021.019h1.097c.014,0,.025.005.035.014.009.009.014.02.014.033v.378c0,.013-.005.024-.014.033-.01.009-.021.014-.035.014h-1.645c-.014,0-.025-.005-.035-.014-.01-.009-.014-.02-.014-.033v-2.634c0-.013.005-.024.014-.033.009-.009.021-.014.035-.014h1.645c.014,0,.025.005.035.014.009.009.014.02.014.033v.378c0,.013-.005.024-.014.033Z" fill="#69bce3"/>
    <path d="M89.859,25.507c.009-.009.021-.014.035-.014h.475c.014,0,.025.005.035.014.009.009.014.02.014.033v2.634c0,.013-.005.024-.014.033-.01.009-.021.014-.035.014h-.499c-.027,0-.046-.012-.057-.035l-.782-1.586c-.006-.008-.011-.012-.016-.012-.005,0-.008.005-.008.016l.004,1.57c0,.013-.005.024-.014.033-.01.009-.021.014-.035.014h-.475c-.014,0-.025-.005-.035-.014-.01-.009-.014-.02-.014-.033v-2.634c0-.013.005-.024.014-.033.009-.009.021-.014.035-.014h.495c.027,0,.046.012.057.035l.782,1.586c.005.008.011.012.016.012.006,0,.008-.005.008-.016v-1.571c0-.013.005-.024.014-.033Z" fill="#69bce3"/>
    <path d="M92.498,25.507c.01.009.014.02.014.033v.382c0,.013-.005.024-.014.033-.009.009-.021.014-.035.014h-.622c-.014,0-.021.007-.021.019v2.186c0,.013-.005.024-.014.033-.009.009-.021.014-.035.014h-.479c-.014,0-.025-.005-.035-.014-.009-.009-.014-.02-.014-.033v-2.186c0-.013-.007-.019-.021-.019h-.601c-.014,0-.025-.005-.035-.014s-.014-.02-.014-.033v-.382c0-.013.005-.024.014-.033s.021-.014.035-.014h1.841c.014,0,.025.005.035.014Z" fill="#69bce3"/>
    <path d="M94.401,25.951c-.01.009-.021.014-.035.014h-1.097c-.014,0-.021.007-.021.019v.608c0,.013.007.019.021.019h.683c.014,0,.025.005.035.014.009.009.014.02.014.033v.378c0,.013-.005.024-.014.033-.01.009-.021.014-.035.014h-.683c-.014,0-.021.006-.021.019v.627c0,.013.007.019.021.019h1.097c.014,0,.025.005.035.014.009.009.014.02.014.033v.378c0,.013-.005.024-.014.033-.01.009-.021.014-.035.014h-1.645c-.014,0-.025-.005-.035-.014-.01-.009-.014-.02-.014-.033v-2.634c0-.013.005-.024.014-.033.009-.009.021-.014.035-.014h1.645c.014,0,.025.005.035.014.009.009.014.02.014.033v.378c0,.013-.005.024-.014.033Z" fill="#69bce3"/>
  </g>
</svg>