<svg xmlns="http://www.w3.org/2000/svg" viewBox="0 0 100 20">
  <path d="M42.505,19.638H3.776c-1.768,0-3.085-1.631-2.713-3.359L4.017,2.554c.275-1.278,1.405-2.191,2.713-2.191h42.874c2.08,0,3.42,2.203,2.465,4.05l-7.099,13.725c-.477.921-1.427,1.5-2.465,1.5Z" fill="#fff"/>
  <path d="M89.406,19.638h-40.519c-2.14,0-3.518-2.268-2.533-4.167l7.035-13.568c.491-.946,1.468-1.54,2.533-1.54h35.369c1.732,0,3.065,1.531,2.826,3.246l-1.886,13.568c-.196,1.411-1.402,2.461-2.826,2.461Z" fill="#1da4df"/>
  <path d="M95.168,19.638h4.832V.362h-2.947c-1.424,0-2.63,1.05-2.826,2.461l-1.886,13.568c-.238,1.716,1.094,3.246,2.826,3.246Z" fill="#eac819"/>
  <g>
    <g>
      <path d="M69.405,14.553h-.923l-.15.394h-.657l.945-2.29h.651l.942,2.29h-.657l-.15-.394ZM69.215,14.062l-.269-.707-.272.707h.541Z" fill="#fff"/>
      <path d="M72.828,14.947h-1.655v-2.29h.604v1.774h1.051v.516Z" fill="#fff"/>
      <path d="M74.961,14.988c-.713,0-1.242-.504-1.242-1.186,0-.676.529-1.183,1.242-1.183.566,0,.967.282,1.129.707l-.557.219c-.113-.225-.3-.369-.573-.369-.357,0-.632.269-.632.626s.275.629.632.629c.282,0,.485-.15.569-.375l.56.222c-.163.429-.563.71-1.129.71Z" fill="#fff"/>
      <path d="M78.543,14.553h-.923l-.15.394h-.657l.945-2.29h.651l.942,2.29h-.657l-.15-.394ZM78.352,14.062l-.269-.707-.272.707h.541Z" fill="#fff"/>
      <path d="M81.966,14.947h-1.655v-2.29h.604v1.774h1.051v.516Z" fill="#fff"/>
      <path d="M82.967,12.657h.879c.729,0,1.233.447,1.233,1.142,0,.688-.488,1.148-1.233,1.148h-.879v-2.29ZM83.846,14.431c.4,0,.623-.21.623-.626,0-.422-.222-.632-.623-.632h-.275v1.258h.275Z" fill="#fff"/>
      <path d="M86.758,13.564h.926v.497h-.926v.369h1.051v.516h-1.655v-2.29h1.655v.516h-1.051v.391Z" fill="#fff"/>
    </g>
    <g>
      <path d="M59.702,10.665h-2.281l-.371.974h-1.624l2.335-5.66h1.608l2.327,5.66h-1.624l-.371-.974ZM59.231,9.451l-.665-1.747-.673,1.747h1.338Z" fill="#fff"/>
      <path d="M67.789,9.327v-3.348h1.492v3.348c0,.673.418,1.044,1.067,1.044.626,0,1.044-.379,1.044-1.044v-3.348h1.5v3.348c0,1.446-1.013,2.412-2.544,2.412-1.546,0-2.559-.967-2.559-2.412Z" fill="#fff"/>
      <path d="M73.325,11.639v-5.66h1.492v5.66h-1.492Z" fill="#fff"/>
      <path d="M79.348,11.639h-4.09v-5.66h1.492v4.384h2.598v1.276Z" fill="#fff"/>
      <path d="M80.864,8.222h2.289v1.229h-2.289v.912h2.598v1.276h-4.09v-5.66h4.09v1.276h-2.598v.967Z" fill="#fff"/>
      <path d="M85.99,10.371c.503,0,.796-.116.796-.425,0-.735-3.317-.124-3.317-2.281,0-1.113.997-1.778,2.289-1.778.928,0,1.74.302,2.366.851l-.758,1.044c-.441-.34-1.067-.526-1.647-.526-.456,0-.75.108-.75.402,0,.711,3.309.093,3.309,2.273,0,1.152-.889,1.809-2.296,1.809-1.052,0-1.987-.371-2.644-.936l.781-1.044c.541.356,1.144.611,1.871.611Z" fill="#fff"/>
    </g>
    <path d="M66.449,11.267h0s0,0,0,0l-2.168-2.018h0l-2.297,1.711,2.298-4.754.626,1.295h1.719l-1.208,1.058,1.454,2.244c.406-.541.647-1.212.647-1.94,0-1.788-1.45-3.238-3.238-3.238s-3.238,1.45-3.238,3.238c0,1.671,1.266,3.046,2.891,3.219.541.405,1.212.645,1.939.645.605,0,1.171-.166,1.655-.455l-1.079-1.004ZM63.448,7.501l-.449.93-1.062-.93h1.512Z" fill="#fff"/>
  </g>
  <g>
    <path d="M23.435,12.863v1.225h-.345c-.514,0-.873-.155-1.07-.458-.253.338-.627.542-1.077.542-.972,0-1.697-.81-1.697-1.88s.725-1.88,1.697-1.88c.359,0,.662.127.901.345v-1.739h1.267v3.598c0,.162.084.246.246.246h.077ZM21.843,12.293c0-.373-.275-.655-.648-.655s-.648.282-.648.655.275.655.648.655.648-.282.648-.655" fill="#2b3058"/>
    <path d="M26.884,12.652h-2.513c.098.282.324.451.627.451.247,0,.451-.106.542-.211h1.331c-.253.76-.993,1.282-1.908,1.282-1.112,0-1.95-.81-1.95-1.88s.838-1.88,1.95-1.88,1.95.803,1.95,1.908c0,.099-.007.239-.028.331M24.371,11.927h1.19c-.098-.282-.331-.444-.599-.444s-.486.169-.591.444" fill="#2b3058"/>
    <path d="M29.017,11.652v.993c0,.19.106.289.31.289h.366v1.155h-.556c-.929,0-1.387-.408-1.387-1.232v-1.204h-.479v-1.155h.232c.211,0,.317-.106.317-.317v-.598h1.197v.915h.676v1.155h-.676Z" fill="#2b3058"/>
    <path d="M29.355,12.293c0-1.07.838-1.88,1.95-1.88s1.95.81,1.95,1.88-.838,1.88-1.95,1.88-1.95-.81-1.95-1.88M31.953,12.293c0-.373-.275-.655-.648-.655s-.648.282-.648.655.275.655.648.655.648-.282.648-.655" fill="#2b3058"/>
    <path d="M37.057,12.863v1.225h-.345c-.514,0-.873-.155-1.07-.458-.253.338-.627.542-1.077.542-.972,0-1.697-.81-1.697-1.88s.725-1.88,1.697-1.88c.359,0,.662.127.901.345v-1.739h1.267v3.598c0,.162.084.246.246.246h.077ZM35.466,12.293c0-.373-.275-.655-.648-.655s-.648.282-.648.655.275.655.648.655.648-.282.648-.655" fill="#2b3058"/>
    <path d="M36.634,12.293c0-1.07.838-1.88,1.95-1.88s1.95.81,1.95,1.88-.838,1.88-1.95,1.88-1.95-.81-1.95-1.88M39.232,12.293c0-.373-.275-.655-.648-.655s-.648.282-.648.655.275.655.648.655.648-.282.648-.655" fill="#2b3058"/>
    <path d="M43.815,12.666c0,.887-.549,1.507-1.5,1.507-.479,0-.901-.155-1.204-.422l-.12.338h-1.303l1.38-3.591h1.45c0,.894,1.295.817,1.295,2.169M42.513,12.638c0-.282-.444-.415-.725-.76l-.296.817c.127.155.331.253.57.253.268,0,.451-.127.451-.31" fill="#2b3058"/>
    <g>
      <path d="M25.627,7.862c0-1.222.951-2.148,2.209-2.148,1.107,0,1.98.722,2.173,1.727h-1.222c-.156-.373-.518-.62-.951-.62-.584,0-1.029.445-1.029,1.041s.445,1.041,1.029,1.041c.433,0,.794-.247.951-.62h1.222c-.193,1.005-1.065,1.727-2.173,1.727-1.258,0-2.209-.927-2.209-2.148" fill="#2b3058"/>
      <path d="M29.719,5.954c0-.373.283-.65.656-.65s.656.277.656.65-.283.65-.656.65-.656-.277-.656-.65M29.833,6.869h1.083v3.069h-1.083v-3.069Z" fill="#2b3058"/>
      <path d="M34.124,8.891v1.047h-.295c-.463,0-.77-.144-.933-.427-.229.331-.542.499-.927.499-.656,0-1.095-.445-1.095-1.125v-2.016h1.083v1.685c0,.247.15.409.379.409.253,0,.427-.169.427-.421v-1.673h1.083v1.811c0,.138.072.211.211.211h.066Z" fill="#2b3058"/>
      <path d="M37.355,8.891v1.047h-.295c-.439,0-.746-.132-.915-.391-.217.289-.536.463-.921.463-.83,0-1.45-.692-1.45-1.607s.62-1.607,1.45-1.607c.307,0,.566.108.77.295v-1.486h1.083v3.075c0,.138.072.211.211.211h.066ZM35.995,8.404c0-.319-.235-.56-.554-.56s-.554.241-.554.56.235.56.554.56.554-.241.554-.56" fill="#2b3058"/>
      <path d="M40.592,8.891v1.047h-.295c-.439,0-.746-.132-.915-.391-.217.289-.536.463-.921.463-.83,0-1.45-.692-1.45-1.607s.62-1.607,1.45-1.607c.307,0,.566.108.77.295v-.223h1.083v1.811c0,.138.072.211.211.211h.066ZM39.232,8.404c0-.319-.235-.56-.554-.56s-.554.241-.554.56.235.56.554.56.554-.241.554-.56" fill="#2b3058"/>
      <path d="M43.818,8.891v1.047h-.295c-.439,0-.746-.132-.915-.391-.217.289-.536.463-.921.463-.83,0-1.45-.692-1.45-1.607s.62-1.607,1.45-1.607c.307,0,.566.108.77.295v-1.486h1.083v3.075c0,.138.072.211.211.211h.066ZM42.458,8.404c0-.319-.235-.56-.554-.56s-.554.241-.554.56.235.56.554.56.554-.241.554-.56" fill="#2b3058"/>
    </g>
    <g>
      <polygon points="22.071 8.786 22.071 9.913 19.304 9.913 19.304 5.593 20.5 5.593 20.5 8.786 22.071 8.786" fill="#2b3058"/>
      <path d="M25.421,8.823v1.089h-.307c-.457,0-.776-.138-.952-.407-.225.301-.557.482-.958.482-.864,0-1.509-.72-1.509-1.672s.645-1.672,1.509-1.672c.319,0,.588.113.801.307v-.232h1.127v1.885c0,.144.075.219.219.219h.069ZM24.006,8.316c0-.332-.244-.582-.576-.582s-.576.25-.576.582.244.582.576.582.576-.25.576-.582" fill="#2b3058"/>
    </g>
    <g>
      <path d="M10.89,11.125h-1.852l-.234.682h-1.55l1.875-4.956h1.701l1.875,4.956h-1.58l-.234-.682ZM10.466,9.861l-.499-1.487-.507,1.487h1.006Z" fill="#1da4df"/>
      <path d="M12.243,10.27h1.482c0,.223.242.402.552.402.265,0,.484-.129.484-.302,0-.251-.461-.366-.862-.46-.733-.172-1.58-.589-1.58-1.552,0-.955.824-1.595,1.913-1.595,1.104,0,1.935.668,1.935,1.559h-1.482c0-.194-.197-.338-.469-.338-.227,0-.416.101-.416.266,0,.244.408.359.801.453.771.187,1.641.539,1.641,1.53s-.862,1.659-1.988,1.659c-1.157,0-2.011-.711-2.011-1.623Z" fill="#1da4df"/>
      <path d="M17.112,5.4h1.694l-1.013,1.135h-1.421l.741-1.135ZM16.409,6.851h1.444v4.956h-1.444v-4.956Z" fill="#1da4df"/>
    </g>
    <g>
      <path d="M6.994,13.525h.592c0,.089.097.161.221.161.106,0,.193-.052.193-.12,0-.1-.184-.146-.344-.184-.293-.069-.631-.235-.631-.62,0-.381.329-.637.764-.637.441,0,.773.267.773.623h-.592c0-.078-.079-.135-.187-.135-.091,0-.166.04-.166.106,0,.098.163.143.32.181.308.075.655.215.655.611s-.344.663-.794.663c-.462,0-.804-.284-.804-.648Z" fill="#1da4df"/>
      <path d="M10.083,13.623v.516h-1.426v-1.979h1.411v.516h-.834v.209h.737v.516h-.737v.221h.849Z" fill="#1da4df"/>
      <path d="M12.403,12.16v1.979h-.577v-.737h-.652v.737h-.577v-1.979h.577v.726h.652v-.726h.577Z" fill="#1da4df"/>
      <path d="M13.816,13.867h-.74l-.094.273h-.619l.749-1.979h.68l.749,1.979h-.631l-.094-.273ZM13.647,13.362l-.199-.594-.202.594h.402Z" fill="#1da4df"/>
      <path d="M14.296,13.15c0-.582.477-1.024,1.109-1.024.556,0,.994.344,1.091.823h-.613c-.079-.178-.26-.296-.477-.296-.293,0-.517.212-.517.496s.224.496.517.496c.218,0,.399-.118.477-.296h.613c-.097.479-.535.823-1.091.823-.631,0-1.109-.442-1.109-1.024Z" fill="#1da4df"/>
      <path d="M17.966,13.623v.516h-1.426v-1.979h1.411v.516h-.834v.209h.737v.516h-.737v.221h.849Z" fill="#1da4df"/>
    </g>
  </g>
</svg>